<svg width="42" height="42" viewBox="0 0 42 42" fill="none" xmlns="http://www.w3.org/2000/svg">
<path d="M20.8333 0C32.3396 0 41.6667 9.32708 41.6667 20.8333C41.6667 32.3396 32.3396 41.6667 20.8333 41.6667C9.32708 41.6667 0 32.3396 0 20.8333C0 9.32708 9.32708 0 20.8333 0ZM20.8333 4.16667C16.4131 4.16667 12.1738 5.92261 9.04822 9.04822C5.92261 12.1738 4.16667 16.4131 4.16667 20.8333C4.16667 25.2536 5.92261 29.4928 9.04822 32.6184C12.1738 35.7441 16.4131 37.5 20.8333 37.5C25.2536 37.5 29.4928 35.7441 32.6184 32.6184C35.7441 29.4928 37.5 25.2536 37.5 20.8333C37.5 16.4131 35.7441 12.1738 32.6184 9.04822C29.4928 5.92261 25.2536 4.16667 20.8333 4.16667ZM21.875 22.9167C22.406 22.9173 22.9167 23.1206 23.3029 23.4851C23.689 23.8496 23.9213 24.3478 23.9524 24.8779C23.9836 25.408 23.8111 25.93 23.4703 26.3372C23.1295 26.7443 22.646 27.006 22.1187 27.0687L21.875 27.0833H14.8042L13.0687 30.1854C12.8114 30.6534 12.384 31.0047 11.875 31.1667C11.3661 31.3287 10.8143 31.289 10.3337 31.0558C9.8532 30.8226 9.48057 30.4138 9.29285 29.9137C9.10512 29.4136 9.11663 28.8606 9.325 28.3687L9.43333 28.1479L10.0292 27.0854H8.95833C8.4241 27.0896 7.90865 26.8885 7.51852 26.5235C7.1284 26.1584 6.8934 25.6575 6.86211 25.1242C6.83082 24.5908 7.00561 24.0659 7.35038 23.6577C7.69514 23.2496 8.18352 22.9895 8.71458 22.9312L8.95833 22.9167H21.875ZM25.8187 16.6917L29.3042 22.9167H32.7083C33.2609 22.9167 33.7908 23.1362 34.1815 23.5269C34.5722 23.9176 34.7917 24.4475 34.7917 25C34.7917 25.5525 34.5722 26.0824 34.1815 26.4731C33.7908 26.8638 33.2609 27.0833 32.7083 27.0833H31.6375L32.2354 28.15C32.4984 28.6316 32.5608 29.1975 32.409 29.7248C32.2572 30.2521 31.9035 30.6983 31.4247 30.9663C30.9459 31.2344 30.3807 31.3027 29.8518 31.1565C29.323 31.0103 28.8731 30.6613 28.6 30.1854L22.1833 18.7271C21.9203 18.2455 21.858 17.6796 22.0097 17.1523C22.1615 16.625 22.5152 16.1788 22.994 15.9108C23.4728 15.6427 24.038 15.5743 24.5669 15.7206C25.0958 15.8668 25.5456 16.2157 25.8187 16.6917ZM20.5688 7.31667L20.8333 7.78958L21.0979 7.31667C21.3678 6.8343 21.8183 6.47892 22.3502 6.3287C22.8822 6.17847 23.452 6.24571 23.9344 6.51562C24.4167 6.78554 24.7721 7.23601 24.9223 7.76795C25.0726 8.29989 25.0053 8.86972 24.7354 9.35208L18.3188 20.8104C18.0456 21.2863 17.5958 21.6353 17.0669 21.7815C16.538 21.9277 15.9728 21.8594 15.494 21.5913C15.0152 21.3233 14.6615 20.8771 14.5097 20.3498C14.358 19.8225 14.4203 19.2566 14.6833 18.775L18.4458 12.0542L16.9333 9.35208C16.7962 9.11318 16.7079 8.84947 16.6734 8.5762C16.6389 8.30294 16.6589 8.02554 16.7323 7.76006C16.8057 7.49458 16.931 7.24629 17.101 7.02955C17.2709 6.81281 17.4822 6.63193 17.7225 6.49737C17.9629 6.36281 18.2275 6.27724 18.5011 6.24562C18.7747 6.214 19.0519 6.23695 19.3166 6.31314C19.5813 6.38933 19.8282 6.51726 20.0432 6.68951C20.2581 6.86176 20.4367 7.07493 20.5688 7.31667Z" fill="black"/>
</svg>
