<svg width="37" height="37" viewBox="0 0 37 37" fill="none" xmlns="http://www.w3.org/2000/svg">
<g filter="url(#filter0_d_1_416)">
<path d="M15.2778 0H5.61111C5.18382 0 4.77403 0.169742 4.47188 0.471883C4.16974 0.774025 4 1.18382 4 1.61111V11.2778C4 11.7051 4.16974 12.1149 4.47188 12.417C4.77403 12.7191 5.18382 12.8889 5.61111 12.8889H15.2778C15.7051 12.8889 16.1149 12.7191 16.417 12.417C16.7191 12.1149 16.8889 11.7051 16.8889 11.2778V1.61111C16.8889 1.18382 16.7191 0.774025 16.417 0.471883C16.1149 0.169742 15.7051 0 15.2778 0ZM13.6667 9.66667H7.22222V3.22222H13.6667V9.66667ZM31.3889 0H21.7222C21.2949 0 20.8851 0.169742 20.583 0.471883C20.2809 0.774025 20.1111 1.18382 20.1111 1.61111V11.2778C20.1111 11.7051 20.2809 12.1149 20.583 12.417C20.8851 12.7191 21.2949 12.8889 21.7222 12.8889H31.3889C31.8162 12.8889 32.226 12.7191 32.5281 12.417C32.8303 12.1149 33 11.7051 33 11.2778V1.61111C33 1.18382 32.8303 0.774025 32.5281 0.471883C32.226 0.169742 31.8162 0 31.3889 0ZM29.7778 9.66667H23.3333V3.22222H29.7778V9.66667ZM15.2778 16.1111H5.61111C5.18382 16.1111 4.77403 16.2809 4.47188 16.583C4.16974 16.8851 4 17.2949 4 17.7222V27.3889C4 27.8162 4.16974 28.226 4.47188 28.5281C4.77403 28.8303 5.18382 29 5.61111 29H15.2778C15.7051 29 16.1149 28.8303 16.417 28.5281C16.7191 28.226 16.8889 27.8162 16.8889 27.3889V17.7222C16.8889 17.2949 16.7191 16.8851 16.417 16.583C16.1149 16.2809 15.7051 16.1111 15.2778 16.1111ZM13.6667 25.7778H7.22222V19.3333H13.6667V25.7778ZM26.5556 16.1111C23.0014 16.1111 20.1111 19.0014 20.1111 22.5556C20.1111 26.1097 23.0014 29 26.5556 29C30.1097 29 33 26.1097 33 22.5556C33 19.0014 30.1097 16.1111 26.5556 16.1111ZM26.5556 25.7778C24.7785 25.7778 23.3333 24.3326 23.3333 22.5556C23.3333 20.7785 24.7785 19.3333 26.5556 19.3333C28.3326 19.3333 29.7778 20.7785 29.7778 22.5556C29.7778 24.3326 28.3326 25.7778 26.5556 25.7778Z" fill="#D9D9D9"/>
<path d="M13.6667 10.1667H14.1667V9.66667V3.22222V2.72222H13.6667H7.22222H6.72222V3.22222V9.66667V10.1667H7.22222H13.6667ZM29.7778 10.1667H30.2778V9.66667V3.22222V2.72222H29.7778H23.3333H22.8333V3.22222V9.66667V10.1667H23.3333H29.7778ZM13.6667 26.2778H14.1667V25.7778V19.3333V18.8333H13.6667H7.22222H6.72222V19.3333V25.7778V26.2778H7.22222H13.6667ZM5.61111 0.5H15.2778C15.5725 0.5 15.8551 0.617063 16.0635 0.825437C16.2718 1.03381 16.3889 1.31643 16.3889 1.61111V11.2778C16.3889 11.5725 16.2718 11.8551 16.0634 12.0634C15.8551 12.2718 15.5725 12.3889 15.2778 12.3889H5.61111C5.31643 12.3889 5.03381 12.2718 4.82544 12.0635C4.61706 11.8551 4.5 11.5725 4.5 11.2778V1.61111C4.5 1.31643 4.61706 1.03381 4.82544 0.825437C5.03381 0.617063 5.31643 0.5 5.61111 0.5ZM21.7222 0.5H31.3889C31.6836 0.5 31.9662 0.617064 32.1746 0.825436C32.3829 1.03381 32.5 1.31643 32.5 1.61111V11.2778C32.5 11.5725 32.3829 11.8551 32.1746 12.0635C31.9662 12.2718 31.6836 12.3889 31.3889 12.3889H21.7222C21.4275 12.3889 21.1449 12.2718 20.9365 12.0635C20.7282 11.8551 20.6111 11.5725 20.6111 11.2778V1.61111C20.6111 1.31643 20.7282 1.03381 20.9365 0.825436C21.1449 0.617063 21.4275 0.5 21.7222 0.5ZM5.61111 16.6111H15.2778C15.5725 16.6111 15.8551 16.7282 16.0635 16.9365C16.2718 17.1449 16.3889 17.4275 16.3889 17.7222V27.3889C16.3889 27.6836 16.2718 27.9662 16.0635 28.1746C15.8551 28.3829 15.5725 28.5 15.2778 28.5H5.61111C5.31643 28.5 5.03381 28.3829 4.82544 28.1746C4.61706 27.9662 4.5 27.6836 4.5 27.3889V17.7222C4.5 17.4275 4.61706 17.1449 4.82544 16.9365C5.03381 16.7282 5.31643 16.6111 5.61111 16.6111ZM20.6111 22.5556C20.6111 19.2776 23.2776 16.6111 26.5556 16.6111C29.8335 16.6111 32.5 19.2776 32.5 22.5556C32.5 25.8335 29.8335 28.5 26.5556 28.5C23.2776 28.5 20.6111 25.8335 20.6111 22.5556ZM22.8333 22.5556C22.8333 24.6088 24.5024 26.2778 26.5556 26.2778C28.6088 26.2778 30.2778 24.6088 30.2778 22.5556C30.2778 20.5024 28.6088 18.8333 26.5556 18.8333C24.5024 18.8333 22.8333 20.5024 22.8333 22.5556Z" stroke="black"/>
</g>
<defs>
<filter id="filter0_d_1_416" x="0" y="0" width="37" height="37" filterUnits="userSpaceOnUse" color-interpolation-filters="sRGB">
<feFlood flood-opacity="0" result="BackgroundImageFix"/>
<feColorMatrix in="SourceAlpha" type="matrix" values="0 0 0 0 0 0 0 0 0 0 0 0 0 0 0 0 0 0 127 0" result="hardAlpha"/>
<feOffset dy="4"/>
<feGaussianBlur stdDeviation="2"/>
<feComposite in2="hardAlpha" operator="out"/>
<feColorMatrix type="matrix" values="0 0 0 0 0 0 0 0 0 0 0 0 0 0 0 0 0 0 0.25 0"/>
<feBlend mode="normal" in2="BackgroundImageFix" result="effect1_dropShadow_1_416"/>
<feBlend mode="normal" in="SourceGraphic" in2="effect1_dropShadow_1_416" result="shape"/>
</filter>
</defs>
</svg>
