<svg width="210" height="88" viewBox="0 0 210 88" fill="none" xmlns="http://www.w3.org/2000/svg">
<g clip-path="url(#clip0_17_2)">
<path d="M0.736206 62.4981L19.3776 16.493H1.65V7.32867H30.1603V16.3097L11.519 62.3148H30.1603V71.4791H0.736206V62.4981ZM44.9917 72.3956C40.1181 72.3956 36.402 71.0209 33.8433 68.2716C31.2847 65.4614 30.0054 61.4593 30.0054 56.2663V7.32867H40.0571V56.9994C40.0571 59.1989 40.4836 60.7875 41.3364 61.7649C42.2502 62.7423 43.5295 63.2312 45.1744 63.2312C46.8192 63.2312 48.0679 62.7423 48.921 61.7649C49.8348 60.7875 50.2917 59.1989 50.2917 56.9994V7.32867H59.9779V56.2663C59.9779 61.4593 58.6986 65.4614 56.1399 68.2716C53.5813 71.0209 49.8654 72.3956 44.9917 72.3956ZM89.1105 7.32867H101.721L111.498 45.7273H111.681V7.32867H120.636V71.4791H110.31L98.2484 24.6493H98.0657V71.4791H89.1105V7.32867ZM137.154 72.3956C132.22 72.3956 128.442 70.9902 125.823 68.18C123.204 65.3697 121.894 61.3983 121.894 56.2663V22.5415C121.894 17.4095 123.204 13.4382 125.823 10.6278C128.442 7.81745 132.22 6.41223 137.154 6.41223C142.089 6.41223 145.866 7.81745 148.485 10.6278C151.105 13.4382 152.414 17.4095 152.414 22.5415V56.2663C152.414 61.3983 151.105 65.3697 148.485 68.18C145.866 70.9902 142.089 72.3956 137.154 72.3956ZM137.154 63.2312C140.627 63.2312 142.363 61.1234 142.363 56.9078V21.9C142.363 17.6844 140.627 15.5766 137.154 15.5766C133.682 15.5766 131.945 17.6844 131.945 21.9V56.9078C131.945 61.1234 133.682 63.2312 137.154 63.2312ZM161.231 16.493H150.723V7.32867H181.792V16.493H171.283V71.4791H161.231V16.493ZM181.175 7.32867H208.589V16.493H191.227V33.4471H205.025V42.6114H191.227V62.3148H208.589V71.4791H181.175V7.32867Z" fill="white"/>
<path d="M0.736193 62.498L0.312911 62.3257L0.279297 62.4087V62.498H0.736193ZM19.3776 16.493L19.8008 16.6655L20.0564 16.0348H19.3776V16.493ZM1.64999 16.493H1.19309V16.9512H1.64999V16.493ZM1.64999 7.32863V6.87041H1.19309V7.32863H1.64999ZM30.1603 7.32863H30.6172V6.87041H30.1603V7.32863ZM30.1603 16.3097L30.5836 16.4822L30.6172 16.3992V16.3097H30.1603ZM11.519 62.3147L11.0957 62.1425L10.8401 62.773H11.519V62.3147ZM30.1603 62.3147H30.6172V61.8565H30.1603V62.3147ZM30.1603 71.4791V71.9373H30.6172V71.4791H30.1603ZM0.736193 71.4791H0.279297V71.9373H0.736193V71.4791ZM1.15948 62.6703L19.8008 16.6655L18.9543 16.3205L0.312911 62.3257L1.15948 62.6703ZM19.3776 16.0348H1.64999V16.9512H19.3776V16.0348ZM2.10688 16.493V7.32863H1.19309V16.493H2.10688ZM1.64999 7.78685H30.1603V6.87041H1.64999V7.78685ZM29.7034 7.32863V16.3097H30.6172V7.32863H29.7034ZM29.7371 16.1372L11.0957 62.1425L11.9422 62.487L30.5836 16.4822L29.7371 16.1372ZM11.519 62.773H30.1603V61.8565H11.519V62.773ZM29.7034 62.3147V71.4791H30.6172V62.3147H29.7034ZM30.1603 71.0209H0.736193V71.9373H30.1603V71.0209ZM1.19309 71.4791V62.498H0.279297V71.4791H1.19309ZM33.8433 68.2716L33.5059 68.5804L33.5093 68.5841L33.8433 68.2716ZM30.0054 7.32863V6.87041H29.5485V7.32863H30.0054ZM40.0571 7.32863H40.514V6.87041H40.0571V7.32863ZM41.3364 61.7649L40.9926 62.0664L40.9978 62.0723L41.0031 62.0783L41.3364 61.7649ZM48.921 61.7649L48.5874 61.4515L48.5824 61.4574L48.5769 61.4629L48.921 61.7649ZM50.2916 7.32863V6.87041H49.8348V7.32863H50.2916ZM59.9779 7.32863H60.4348V6.87041H59.9779V7.32863ZM56.1399 68.2716L56.4739 68.5841L56.4771 68.5804L56.1399 68.2716ZM44.9916 71.9373C40.2047 71.9373 36.6256 70.5897 34.1774 67.9591L33.5093 68.5841C36.1783 71.4521 40.0314 72.8538 44.9916 72.8538V71.9373ZM34.1807 67.9627C31.7233 65.2634 30.4623 61.3873 30.4623 56.2663H29.5485C29.5485 61.5317 30.8462 65.6588 33.506 68.5804L34.1807 67.9627ZM30.4623 56.2663V7.32863H29.5485V56.2663H30.4623ZM30.0054 7.78685H40.0571V6.87041H30.0054V7.78685ZM39.6002 7.32863V56.9994H40.514V7.32863H39.6002ZM39.6002 56.9994C39.6002 59.2387 40.0309 60.9644 40.9926 62.0664L41.6803 61.4629C40.9363 60.6102 40.514 59.159 40.514 56.9994H39.6002ZM41.0031 62.0783C42.0226 63.1689 43.4345 63.6894 45.1744 63.6894V62.773C43.6245 62.773 42.4779 62.3161 41.6698 61.4515L41.0031 62.0783ZM45.1744 63.6894C46.9129 63.6894 48.3028 63.1693 49.265 62.0664L48.5769 61.4629C47.8331 62.3157 46.7256 62.773 45.1744 62.773V63.6894ZM49.254 62.0783C50.2853 60.9754 50.7485 59.2447 50.7485 56.9994H49.8348C49.8348 59.153 49.3843 60.5992 48.5874 61.4515L49.254 62.0783ZM50.7485 56.9994V7.32863H49.8348V56.9994H50.7485ZM50.2916 7.78685H59.9779V6.87041H50.2916V7.78685ZM59.521 7.32863V56.2663H60.4348V7.32863H59.521ZM59.521 56.2663C59.521 61.3873 58.2599 65.2634 55.8023 67.9627L56.4771 68.5804C59.1372 65.6588 60.4348 61.5317 60.4348 56.2663H59.521ZM55.8059 67.9591C53.3574 70.5897 49.7786 71.9373 44.9916 71.9373V72.8538C49.9517 72.8538 53.8047 71.4521 56.4739 68.5841L55.8059 67.9591ZM89.1105 7.32863V6.87041H88.6536V7.32863H89.1105ZM101.721 7.32863L102.164 7.21527L102.076 6.87041H101.721V7.32863ZM111.498 45.7273L111.056 45.8404L111.144 46.1855H111.498V45.7273ZM111.681 45.7273V46.1855H112.138V45.7273H111.681ZM111.681 7.32863V6.87041H111.224V7.32863H111.681ZM120.636 7.32863H121.093V6.87041H120.636V7.32863ZM120.636 71.4791V71.9373H121.093V71.4791H120.636ZM110.31 71.4791L109.868 71.5937L109.957 71.9373H110.31V71.4791ZM98.2484 24.6493L98.6912 24.5347L98.6025 24.191H98.2484V24.6493ZM98.0657 24.6493V24.191H97.6088V24.6493H98.0657ZM98.0657 71.4791V71.9373H98.5226V71.4791H98.0657ZM89.1105 71.4791H88.6536V71.9373H89.1105V71.4791ZM89.1105 7.78685H101.721V6.87041H89.1105V7.78685ZM101.279 7.44199L111.056 45.8404L111.941 45.6141L102.164 7.21527L101.279 7.44199ZM111.498 46.1855H111.681V45.2691H111.498V46.1855ZM112.138 45.7273V7.32863H111.224V45.7273H112.138ZM111.681 7.78685H120.636V6.87041H111.681V7.78685ZM120.179 7.32863V71.4791H121.093V7.32863H120.179ZM120.636 71.0209H110.31V71.9373H120.636V71.0209ZM110.753 71.3645L98.6912 24.5347L97.8061 24.7639L109.868 71.5937L110.753 71.3645ZM98.2484 24.191H98.0657V25.1075H98.2484V24.191ZM97.6088 24.6493V71.4791H98.5226V24.6493H97.6088ZM98.0657 71.0209H89.1105V71.9373H98.0657V71.0209ZM89.5674 71.4791V7.32863H88.6536V71.4791H89.5674ZM125.823 68.1799L126.157 67.867L125.823 68.1799ZM125.823 10.6278L126.157 10.9407L125.823 10.6278ZM148.485 10.6278L148.151 10.9407L148.485 10.6278ZM148.485 68.1799L148.151 67.867L148.485 68.1799ZM137.154 71.9373C132.308 71.9373 128.667 70.5599 126.157 67.867L125.489 68.4929C128.218 71.4209 132.131 72.8538 137.154 72.8538V71.9373ZM126.157 67.867C123.64 65.1667 122.351 61.3218 122.351 56.2663H121.437C121.437 61.4748 122.767 65.5722 125.489 68.4929L126.157 67.867ZM122.351 56.2663V22.5415H121.437V56.2663H122.351ZM122.351 22.5415C122.351 17.4859 123.64 13.6411 126.157 10.9407L125.489 10.3149C122.767 13.2353 121.437 17.3329 121.437 22.5415H122.351ZM126.157 10.9407C128.667 8.24777 132.308 6.87041 137.154 6.87041V5.95398C132.131 5.95398 128.218 7.38701 125.489 10.3149L126.157 10.9407ZM137.154 6.87041C142 6.87041 145.641 8.24777 148.151 10.9407L148.819 10.3149C146.09 7.38701 142.177 5.95398 137.154 5.95398V6.87041ZM148.151 10.9407C150.668 13.6411 151.958 17.4859 151.958 22.5415H152.871C152.871 17.3329 151.541 13.2353 148.819 10.3149L148.151 10.9407ZM151.958 22.5415V56.2663H152.871V22.5415H151.958ZM151.958 56.2663C151.958 61.3218 150.668 65.1667 148.151 67.867L148.819 68.4929C151.541 65.5722 152.871 61.4748 152.871 56.2663H151.958ZM148.151 67.867C145.641 70.5599 142 71.9373 137.154 71.9373V72.8538C142.177 72.8538 146.09 71.4209 148.819 68.4929L148.151 67.867ZM137.154 63.6894C138.986 63.6894 140.435 63.129 141.413 61.9422C142.377 60.7719 142.82 59.0674 142.82 56.9078H141.906C141.906 58.9638 141.48 60.4209 140.708 61.3584C139.95 62.2795 138.794 62.773 137.154 62.773V63.6894ZM142.82 56.9078V21.9H141.906V56.9078H142.82ZM142.82 21.9C142.82 19.7406 142.377 18.0358 141.413 16.8656C140.435 15.6786 138.986 15.1183 137.154 15.1183V16.0348C138.794 16.0348 139.95 16.5284 140.708 17.4492C141.48 18.3868 141.906 19.8437 141.906 21.9H142.82ZM137.154 15.1183C135.322 15.1183 133.873 15.6786 132.895 16.8656C131.931 18.0358 131.489 19.7406 131.489 21.9H132.402C132.402 19.8437 132.828 18.3868 133.6 17.4492C134.358 16.5284 135.514 16.0348 137.154 16.0348V15.1183ZM131.489 21.9V56.9078H132.402V21.9H131.489ZM131.489 56.9078C131.489 59.0674 131.931 60.7719 132.895 61.9422C133.873 63.129 135.322 63.6894 137.154 63.6894V62.773C135.514 62.773 134.358 62.2795 133.6 61.3584C132.828 60.4209 132.402 58.9638 132.402 56.9078H131.489ZM161.231 16.493H161.688V16.0348H161.231V16.493ZM150.723 16.493H150.266V16.9512H150.723V16.493ZM150.723 7.32863V6.87041H150.266V7.32863H150.723ZM181.792 7.32863H182.248V6.87041H181.792V7.32863ZM181.792 16.493V16.9512H182.248V16.493H181.792ZM171.283 16.493V16.0348H170.826V16.493H171.283ZM171.283 71.4791V71.9373H171.74V71.4791H171.283ZM161.231 71.4791H160.774V71.9373H161.231V71.4791ZM161.231 16.0348H150.723V16.9512H161.231V16.0348ZM151.179 16.493V7.32863H150.266V16.493H151.179ZM150.723 7.78685H181.792V6.87041H150.723V7.78685ZM181.335 7.32863V16.493H182.248V7.32863H181.335ZM181.792 16.0348H171.283V16.9512H181.792V16.0348ZM170.826 16.493V71.4791H171.74V16.493H170.826ZM171.283 71.0209H161.231V71.9373H171.283V71.0209ZM161.688 71.4791V16.493H160.774V71.4791H161.688ZM181.175 7.32863V6.87041H180.718V7.32863H181.175ZM208.589 7.32863H209.046V6.87041H208.589V7.32863ZM208.589 16.493V16.9512H209.046V16.493H208.589ZM191.227 16.493V16.0348H190.77V16.493H191.227ZM191.227 33.447H190.77V33.9053H191.227V33.447ZM205.025 33.447H205.482V32.9888H205.025V33.447ZM205.025 42.6114V43.0696H205.482V42.6114H205.025ZM191.227 42.6114V42.1532H190.77V42.6114H191.227ZM191.227 62.3147H190.77V62.773H191.227V62.3147ZM208.589 62.3147H209.046V61.8565H208.589V62.3147ZM208.589 71.4791V71.9373H209.046V71.4791H208.589ZM181.175 71.4791H180.718V71.9373H181.175V71.4791ZM181.175 7.78685H208.589V6.87041H181.175V7.78685ZM208.132 7.32863V16.493H209.046V7.32863H208.132ZM208.589 16.0348H191.227V16.9512H208.589V16.0348ZM190.77 16.493V33.447H191.684V16.493H190.77ZM191.227 33.9053H205.025V32.9888H191.227V33.9053ZM204.568 33.447V42.6114H205.482V33.447H204.568ZM205.025 42.1532H191.227V43.0696H205.025V42.1532ZM190.77 42.6114V62.3147H191.684V42.6114H190.77ZM191.227 62.773H208.589V61.8565H191.227V62.773ZM208.132 62.3147V71.4791H209.046V62.3147H208.132ZM208.589 71.0209H181.175V71.9373H208.589V71.0209ZM181.632 71.4791V7.32863H180.718V71.4791H181.632Z" fill="#FFC330"/>
<path d="M60.9081 81.4321C60.7304 82.009 60.7596 82.6304 60.9917 83.1876C61.2234 83.7452 61.6433 84.203 62.1774 84.4816C62.7119 84.7602 63.3265 84.8417 63.915 84.7125C64.503 84.5828 65.027 84.2502 65.3958 83.7727L101.376 37.3782L60.9081 81.4321ZM60.9081 81.4321L69.8139 52.4059H70.1658V51.2603L69.0738 50.9235L68.9705 51.2603M60.9081 81.4321L68.9705 51.2603ZM68.9705 51.2603H53.0851H68.9705ZM64.5637 4.46221L64.5642 4.46198C64.651 4.1651 64.8315 3.90447 65.0787 3.71912C65.3258 3.53377 65.626 3.4337 65.9349 3.43388H65.9353H86.4952C86.7214 3.43411 86.9439 3.48813 87.1449 3.59151C87.3464 3.69497 87.5201 3.84486 87.6521 4.02883L88.5769 3.36084L87.6521 4.02883C87.7846 4.21285 87.871 4.42569 87.9052 4.6499C87.9395 4.87406 87.9198 5.10317 87.8486 5.3183L78.6992 32.8559L78.198 34.3636H79.783H99.3459H99.3468C99.6141 34.3634 99.8764 34.4385 100.103 34.5803C100.33 34.7222 100.512 34.9253 100.63 35.1659C100.748 35.4069 100.796 35.6759 100.768 35.9426L101.904 36.0603L100.768 35.9426C100.74 36.2093 100.639 36.4631 100.474 36.6748L64.4938 83.0693L64.4925 83.0716C64.2878 83.3369 63.9963 83.5216 63.6696 83.5935C63.3429 83.6655 63.0012 83.6201 62.7046 83.4652C62.4077 83.3104 62.1746 83.0561 62.0458 82.7463C61.9169 82.437 61.9005 82.0915 61.9996 81.7712L62.0001 81.7689L71.2573 51.5971L71.7123 50.1148H70.1658H53.0851H53.0847C52.8626 50.1148 52.6433 50.063 52.445 49.9636C52.2463 49.8641 52.074 49.7194 51.9406 49.5411C51.8077 49.3629 51.7181 49.1562 51.6783 48.9372L50.5544 49.1402L51.6783 48.9372C51.6391 48.7181 51.6514 48.4927 51.7135 48.2792C51.7135 48.2792 51.7135 48.2792 51.714 48.2792L64.5637 4.46221Z" fill="white"/>
<path d="M60.9081 81.4321L69.8139 52.4059H70.1658V51.2603L69.0738 50.9235L68.9705 51.2603M60.9081 81.4321L68.9705 51.2603M60.9081 81.4321C60.7304 82.009 60.7596 82.6304 60.9917 83.1876C61.2234 83.7452 61.6433 84.203 62.1774 84.4816C62.7119 84.7602 63.3265 84.8417 63.915 84.7125C64.503 84.5828 65.027 84.2502 65.3958 83.7727L101.376 37.3782L60.9081 81.4321ZM68.9705 51.2603H53.0851H68.9705ZM64.5637 4.46221L64.5642 4.46198C64.651 4.1651 64.8315 3.90447 65.0787 3.71912C65.3258 3.53377 65.626 3.4337 65.9349 3.43388H65.9353H86.4952C86.7214 3.43411 86.9439 3.48813 87.1449 3.59151C87.3464 3.69497 87.5201 3.84486 87.6521 4.02883L88.5769 3.36084L87.6521 4.02883C87.7846 4.21285 87.871 4.42569 87.9052 4.6499C87.9395 4.87406 87.9198 5.10317 87.8486 5.3183L78.6992 32.8559L78.198 34.3636H79.783H99.3459H99.3468C99.6141 34.3634 99.8764 34.4385 100.103 34.5803C100.33 34.7222 100.512 34.9253 100.63 35.1659C100.748 35.4069 100.796 35.6759 100.768 35.9426L101.904 36.0603L100.768 35.9426C100.74 36.2093 100.639 36.4631 100.474 36.6748L64.4938 83.0693L64.4925 83.0716C64.2878 83.3369 63.9963 83.5216 63.6696 83.5935C63.3429 83.6655 63.0012 83.6201 62.7046 83.4652C62.4077 83.3104 62.1746 83.0561 62.0458 82.7463C61.9169 82.437 61.9005 82.0915 61.9996 81.7712L62.0001 81.7689L71.2573 51.5971L71.7123 50.1148H70.1658H53.0851H53.0847C52.8626 50.1148 52.6433 50.063 52.445 49.9636C52.2463 49.8641 52.074 49.7194 51.9406 49.5411C51.8077 49.3629 51.7181 49.1562 51.6783 48.9372L50.5544 49.1402L51.6783 48.9372C51.6391 48.7181 51.6514 48.4927 51.7135 48.2792C51.7135 48.2792 51.7135 48.2792 51.714 48.2792L64.5637 4.46221Z" stroke="#FFC330" stroke-width="5"/>
</g>
<defs>
<clipPath id="clip0_17_2">
<rect width="210" height="88" fill="white"/>
</clipPath>
</defs>
</svg>
