<svg width="17" height="17" viewBox="0 0 17 17" fill="none" xmlns="http://www.w3.org/2000/svg">
<path d="M14.4102 12.1523H13.2431C13.1634 12.1523 13.0887 12.1872 13.0389 12.2486C12.9227 12.3897 12.7981 12.5259 12.667 12.6554C12.1306 13.1923 11.4952 13.6202 10.796 13.9154C10.0716 14.2214 9.29301 14.3784 8.50664 14.3769C7.71143 14.3769 6.94112 14.2209 6.21729 13.9154C5.51808 13.6202 4.8827 13.1923 4.34629 12.6554C3.80892 12.1202 3.38044 11.486 3.08457 10.7877C2.77744 10.0639 2.62305 9.29521 2.62305 8.49999C2.62305 7.70478 2.7791 6.93613 3.08457 6.2123C3.38008 5.51337 3.80508 4.88417 4.34629 4.34462C4.8875 3.80507 5.5167 3.38007 6.21729 3.08456C6.94112 2.7791 7.71143 2.62304 8.50664 2.62304C9.30186 2.62304 10.0722 2.77744 10.796 3.08456C11.4966 3.38007 12.1258 3.80507 12.667 4.34462C12.7981 4.47578 12.921 4.61191 13.0389 4.75136C13.0887 4.81279 13.165 4.84765 13.2431 4.84765H14.4102C14.5147 4.84765 14.5795 4.73144 14.5214 4.64345C13.248 2.66455 11.0201 1.35468 8.48838 1.36132C4.51065 1.37128 1.32149 4.60029 1.36133 8.57304C1.40117 12.4827 4.58536 15.6387 8.50664 15.6387C11.0317 15.6387 13.2497 14.3305 14.5214 12.3565C14.5778 12.2685 14.5147 12.1523 14.4102 12.1523ZM15.886 8.39541L13.5303 6.53603C13.4423 6.4663 13.3145 6.52939 13.3145 6.64062V7.90234H8.10157C8.02852 7.90234 7.96875 7.9621 7.96875 8.03515V8.96484C7.96875 9.03789 8.02852 9.09765 8.10157 9.09765H13.3145V10.3594C13.3145 10.4706 13.4439 10.5337 13.5303 10.464L15.886 8.60458C15.9019 8.59216 15.9148 8.57629 15.9236 8.55817C15.9324 8.54005 15.937 8.52015 15.937 8.49999C15.937 8.47984 15.9324 8.45994 15.9236 8.44182C15.9148 8.4237 15.9019 8.40783 15.886 8.39541Z" fill="black"/>
</svg>
