<svg width="169" height="157" viewBox="0 0 169 157" fill="none" xmlns="http://www.w3.org/2000/svg">
<g clip-path="url(#clip0_14_2009)">
<path d="M160.434 0.166504L94.6184 49.1411L106.792 20.2458L160.434 0.166504Z" fill="#E2761B" stroke="#E2761B" stroke-linecap="round" stroke-linejoin="round"/>
<path d="M8.49939 0.166504L73.7858 49.6045L62.2081 20.2458L8.49939 0.166504Z" fill="#E4761B" stroke="#E4761B" stroke-linecap="round" stroke-linejoin="round"/>
<path d="M136.753 113.69L119.225 140.598L156.73 150.935L167.512 114.287L136.753 113.69Z" fill="#E4761B" stroke="#E4761B" stroke-linecap="round" stroke-linejoin="round"/>
<path d="M1.55408 114.287L12.2699 150.935L49.7751 140.598L32.2472 113.69L1.55408 114.287Z" fill="#E4761B" stroke="#E4761B" stroke-linecap="round" stroke-linejoin="round"/>
<path d="M47.6587 68.2271L37.2058 84.0685L74.4448 85.7256L73.1237 45.6304L47.6587 68.2271Z" fill="#E4761B" stroke="#E4761B" stroke-linecap="round" stroke-linejoin="round"/>
<path d="M121.275 68.2272L95.4803 45.167L94.6184 85.7257L131.794 84.0686L121.275 68.2272Z" fill="#E4761B" stroke="#E4761B" stroke-linecap="round" stroke-linejoin="round"/>
<path d="M49.7751 140.599L72.1319 129.662L52.8168 114.551L49.7751 140.599Z" fill="#E4761B" stroke="#E4761B" stroke-linecap="round" stroke-linejoin="round"/>
<path d="M96.8015 129.662L119.225 140.599L116.117 114.551L96.8015 129.662Z" fill="#E4761B" stroke="#E4761B" stroke-linecap="round" stroke-linejoin="round"/>
<path d="M119.225 140.599L96.8015 129.662L98.5886 144.31L98.3889 150.472L119.225 140.599Z" fill="#D7C1B3" stroke="#D7C1B3" stroke-linecap="round" stroke-linejoin="round"/>
<path d="M49.7751 140.599L70.611 150.472L70.4779 144.31L72.1319 129.662L49.7751 140.599Z" fill="#D7C1B3" stroke="#D7C1B3" stroke-linecap="round" stroke-linejoin="round"/>
<path d="M70.9405 104.878L52.2877 99.376L65.4495 93.3442L70.9405 104.878Z" fill="#233447" stroke="#233447" stroke-linecap="round" stroke-linejoin="round"/>
<path d="M97.9929 104.878L103.484 93.3442L116.712 99.376L97.9929 104.878Z" fill="#233447" stroke="#233447" stroke-linecap="round" stroke-linejoin="round"/>
<path d="M49.7752 140.598L52.95 113.69L32.2472 114.287L49.7752 140.598Z" fill="#CD6116" stroke="#CD6116" stroke-linecap="round" stroke-linejoin="round"/>
<path d="M116.05 113.69L119.225 140.598L136.753 114.287L116.05 113.69Z" fill="#CD6116" stroke="#CD6116" stroke-linecap="round" stroke-linejoin="round"/>
<path d="M131.794 84.0684L94.6184 85.7255L98.0594 104.878L103.55 93.3445L116.779 99.3762L131.794 84.0684Z" fill="#CD6116" stroke="#CD6116" stroke-linecap="round" stroke-linejoin="round"/>
<path d="M52.2878 99.3762L65.5161 93.3445L70.9406 104.878L74.4448 85.7255L37.2058 84.0684L52.2878 99.3762Z" fill="#CD6116" stroke="#CD6116" stroke-linecap="round" stroke-linejoin="round"/>
<path d="M37.2058 84.0684L52.8169 114.551L52.2878 99.3762L37.2058 84.0684Z" fill="#E4751F" stroke="#E4751F" stroke-linecap="round" stroke-linejoin="round"/>
<path d="M116.779 99.3762L116.117 114.551L131.794 84.0684L116.779 99.3762Z" fill="#E4751F" stroke="#E4751F" stroke-linecap="round" stroke-linejoin="round"/>
<path d="M74.4448 85.7256L70.9406 104.878L75.3067 127.475L76.2984 97.7192L74.4448 85.7256Z" fill="#E4751F" stroke="#E4751F" stroke-linecap="round" stroke-linejoin="round"/>
<path d="M94.6185 85.7256L92.8347 97.6525L93.6268 127.475L98.0595 104.878L94.6185 85.7256Z" fill="#E4751F" stroke="#E4751F" stroke-linecap="round" stroke-linejoin="round"/>
<path d="M98.0595 104.878L93.6267 127.474L96.8015 129.662L116.117 114.55L116.779 99.376L98.0595 104.878Z" fill="#F6851B" stroke="#F6851B" stroke-linecap="round" stroke-linejoin="round"/>
<path d="M52.2877 99.376L52.8169 114.55L72.1319 129.662L75.3067 127.474L70.9405 104.878L52.2877 99.376Z" fill="#F6851B" stroke="#F6851B" stroke-linecap="round" stroke-linejoin="round"/>
<path d="M98.3889 150.472L98.5886 144.31L96.9346 142.849H71.9988L70.4779 144.31L70.611 150.472L49.7751 140.599L57.0499 146.56L71.7991 156.833H97.1343L111.95 146.56L119.225 140.599L98.3889 150.472Z" fill="#C0AD9E" stroke="#C0AD9E" stroke-linecap="round" stroke-linejoin="round"/>
<path d="M96.8015 129.662L93.6267 127.475H75.3067L72.1319 129.662L70.4779 144.31L71.9988 142.849H96.9346L98.5886 144.31L96.8015 129.662Z" fill="#161616" stroke="#161616" stroke-linecap="round" stroke-linejoin="round"/>
<path d="M163.213 52.322L168.834 25.284L160.434 0.166504L96.8015 47.4839L121.275 68.2267L155.868 78.3664L163.542 69.4204L160.234 67.0364L165.526 62.1983L161.426 59.0173L166.717 54.9728L163.213 52.322Z" fill="#763D16" stroke="#763D16" stroke-linecap="round" stroke-linejoin="round"/>
<path d="M0.166382 25.284L5.78718 52.322L2.21636 54.9728L7.5077 59.0173L3.4743 62.1983L8.76564 67.0364L5.45772 69.4204L13.0653 78.3664L47.6586 68.2267L72.1319 47.4839L8.49941 0.166504L0.166382 25.284Z" fill="#763D16" stroke="#763D16" stroke-linecap="round" stroke-linejoin="round"/>
<path d="M155.868 78.3667L121.275 68.2271L131.794 84.0684L116.117 114.551L136.753 114.287H167.512L155.868 78.3667Z" fill="#F6851B" stroke="#F6851B" stroke-linecap="round" stroke-linejoin="round"/>
<path d="M47.6586 68.2271L13.0652 78.3667L1.55408 114.287H32.2472L52.8168 114.551L37.2057 84.0684L47.6586 68.2271Z" fill="#F6851B" stroke="#F6851B" stroke-linecap="round" stroke-linejoin="round"/>
<path d="M94.6184 85.7256L96.8015 47.4842L106.858 20.2461H62.2081L72.1319 47.4842L74.4448 85.7256L75.2401 97.7858L75.3067 127.475H93.6267L93.7598 97.7858L94.6184 85.7256Z" fill="#F6851B" stroke="#F6851B" stroke-linecap="round" stroke-linejoin="round"/>
</g>
<defs>
<clipPath id="clip0_14_2009">
<rect width="169" height="157" fill="white"/>
</clipPath>
</defs>
</svg>
