<svg width="29" height="29" viewBox="0 0 29 29" fill="none" xmlns="http://www.w3.org/2000/svg">
<path d="M14.5 15.2734C14.0684 15.275 13.6494 15.4184 13.3072 15.6814C12.9651 15.9445 12.7188 16.3126 12.6063 16.7292C12.4937 17.1458 12.5211 17.5879 12.6842 17.9874C12.8473 18.387 13.1372 18.7219 13.5092 18.9406V21.75H15.515V18.9406C15.8093 18.7666 16.0536 18.5193 16.224 18.2228C16.3945 17.9264 16.4853 17.5909 16.4877 17.249V17.249C16.4877 16.9885 16.4362 16.7306 16.3362 16.4901C16.2361 16.2497 16.0895 16.0313 15.9048 15.8477C15.7201 15.6641 15.5008 15.5188 15.2597 15.4203C15.0187 15.3217 14.7605 15.2718 14.5 15.2734V15.2734Z" stroke="black" stroke-width="1.04167" stroke-linecap="round" stroke-linejoin="round"/>
<path d="M21.9252 10.7361H7.06875C5.62728 10.7361 4.45875 11.9046 4.45875 13.3461V23.6713C4.45875 25.1128 5.62728 26.2813 7.06875 26.2813H21.9252C23.3667 26.2813 24.5352 25.1128 24.5352 23.6713V13.3461C24.5352 11.9046 23.3667 10.7361 21.9252 10.7361Z" stroke="black" stroke-width="1.04167" stroke-linecap="round" stroke-linejoin="round"/>
<path d="M8.06563 10.736V9.15917C8.06563 7.45106 8.74417 5.81292 9.95198 4.6051C11.1598 3.39729 12.7979 2.71875 14.506 2.71875C16.2141 2.71875 17.8523 3.39729 19.0601 4.6051C20.2679 5.81292 20.9465 7.45106 20.9465 9.15917V10.736" stroke="black" stroke-width="1.04167" stroke-linecap="round" stroke-linejoin="round"/>
</svg>
