<svg width="32" height="37" viewBox="0 0 32 37" fill="none" xmlns="http://www.w3.org/2000/svg">
<g filter="url(#filter0_d_1_418)">
<mask id="path-1-inside-1_1_418" fill="white">
<path d="M25.1133 20.9453V12.603C25.1121 10.3824 24.4207 8.22708 23.1509 6.48484C21.881 4.7426 20.1068 3.51514 18.1144 3.00057V2.26742C18.1044 1.66235 17.8757 1.08572 17.4775 0.661662C17.0793 0.2376 16.5434 0 15.9852 0C15.4271 0 14.8912 0.2376 14.493 0.661662C14.0948 1.08572 13.8661 1.66235 13.8561 2.26742V3.00876C11.8705 3.52917 10.1038 4.75807 8.83985 6.49807C7.5759 8.23806 6.88804 10.3882 6.88673 12.603V20.9453L4 24.0752V25.5206H28V24.0752L25.1133 20.9453ZM12.792 25.5206C12.7898 25.9752 12.8703 26.4258 13.0287 26.8466C13.1871 27.2675 13.4205 27.6504 13.7154 27.9735C14.0103 28.2966 14.3611 28.5535 14.7476 28.7296C15.1341 28.9058 15.5488 28.9976 15.9681 29C16.8148 29.0047 17.6286 28.6445 18.2304 27.9988C18.8322 27.353 19.1727 26.4744 19.1771 25.5564V25.5206"/>
</mask>
<path d="M25.1133 20.9453V12.603C25.1121 10.3824 24.4207 8.22708 23.1509 6.48484C21.881 4.7426 20.1068 3.51514 18.1144 3.00057V2.26742C18.1044 1.66235 17.8757 1.08572 17.4775 0.661662C17.0793 0.2376 16.5434 0 15.9852 0C15.4271 0 14.8912 0.2376 14.493 0.661662C14.0948 1.08572 13.8661 1.66235 13.8561 2.26742V3.00876C11.8705 3.52917 10.1038 4.75807 8.83985 6.49807C7.5759 8.23806 6.88804 10.3882 6.88673 12.603V20.9453L4 24.0752V25.5206H28V24.0752L25.1133 20.9453ZM12.792 25.5206C12.7898 25.9752 12.8703 26.4258 13.0287 26.8466C13.1871 27.2675 13.4205 27.6504 13.7154 27.9735C14.0103 28.2966 14.3611 28.5535 14.7476 28.7296C15.1341 28.9058 15.5488 28.9976 15.9681 29C16.8148 29.0047 17.6286 28.6445 18.2304 27.9988C18.8322 27.353 19.1727 26.4744 19.1771 25.5564V25.5206" fill="#D9D9D9"/>
<path d="M25.1133 20.9453H24.1133C24.1133 21.1966 24.2079 21.4386 24.3782 21.6233L25.1133 20.9453ZM25.1133 12.603H26.1133V12.6025L25.1133 12.603ZM18.1144 3.00057H17.1144C17.1144 3.45655 17.4229 3.85478 17.8644 3.9688L18.1144 3.00057ZM18.1144 2.26742H19.1144C19.1144 2.2619 19.1144 2.25638 19.1143 2.25086L18.1144 2.26742ZM13.8561 2.26742L12.8562 2.25086C12.8561 2.25638 12.8561 2.2619 12.8561 2.26742H13.8561ZM13.8561 3.00876L14.1096 3.97609C14.5494 3.86082 14.8561 3.4634 14.8561 3.00876H13.8561ZM6.88673 12.603L5.88673 12.6024V12.603H6.88673ZM6.88673 20.9453L7.62181 21.6233C7.79215 21.4386 7.88673 21.1966 7.88673 20.9453H6.88673ZM4 24.0752L3.26492 23.3972C3.09458 23.5819 3 23.8239 3 24.0752H4ZM4 25.5206H3C3 26.0729 3.44772 26.5206 4 26.5206V25.5206ZM28 25.5206V26.5206C28.5523 26.5206 29 26.0729 29 25.5206H28ZM28 24.0752H29C29 23.8239 28.9054 23.5819 28.7351 23.3972L28 24.0752ZM13.792 25.5254C13.7946 24.9731 13.349 24.5233 12.7968 24.5207C12.2445 24.518 11.7946 24.9636 11.792 25.5159L13.792 25.5254ZM15.9681 29L15.9737 28L15.9681 29ZM19.1771 25.5564L20.1771 25.5611V25.5564H19.1771ZM20.1771 25.5206C20.1771 24.9684 19.7294 24.5206 19.1771 24.5206C18.6248 24.5206 18.1771 24.9684 18.1771 25.5206H20.1771ZM26.1133 20.9453V12.603H24.1133V20.9453H26.1133ZM26.1133 12.6025C26.112 10.1772 25.3574 7.8144 23.959 5.89583L22.3428 7.07385C23.4841 8.63975 24.1122 10.5877 24.1133 12.6036L26.1133 12.6025ZM23.959 5.89583C22.5597 3.97602 20.5925 2.60777 18.3645 2.03234L17.8644 3.9688C19.621 4.4225 21.2023 5.50918 22.3428 7.07385L23.959 5.89583ZM19.1144 3.00057V2.26742H17.1144V3.00057H19.1144ZM19.1143 2.25086C19.1003 1.40821 18.7822 0.590304 18.2064 -0.0228723L16.7485 1.3462C16.9691 1.58115 17.1085 1.91648 17.1146 2.28398L19.1143 2.25086ZM18.2064 -0.0228723C17.6282 -0.638655 16.8324 -1 15.9852 -1V1C16.2544 1 16.5303 1.11386 16.7485 1.3462L18.2064 -0.0228723ZM15.9852 -1C15.1381 -1 14.3423 -0.638656 13.764 -0.0228723L15.222 1.3462C15.4402 1.11386 15.7161 1 15.9852 1V-1ZM13.764 -0.0228723C13.1883 0.590304 12.8702 1.40821 12.8562 2.25086L14.8559 2.28398C14.862 1.91648 15.0014 1.58115 15.222 1.3462L13.764 -0.0228723ZM12.8561 2.26742V3.00876H14.8561V2.26742H12.8561ZM13.6025 2.04143C11.3822 2.62337 9.42349 3.9931 8.03078 5.91035L9.64892 7.08578C10.7841 5.52305 12.3587 4.43498 14.1096 3.97609L13.6025 2.04143ZM8.03078 5.91035C6.63895 7.8264 5.88816 10.1834 5.88673 12.6024L7.88673 12.6036C7.88791 10.593 8.51285 8.64973 9.64892 7.08578L8.03078 5.91035ZM5.88673 12.603V20.9453H7.88673V12.603H5.88673ZM6.15165 20.2673L3.26492 23.3972L4.73508 24.7532L7.62181 21.6233L6.15165 20.2673ZM3 24.0752V25.5206H5V24.0752H3ZM4 26.5206H28V24.5206H4V26.5206ZM29 25.5206V24.0752H27V25.5206H29ZM28.7351 23.3972L25.8484 20.2673L24.3782 21.6233L27.2649 24.7532L28.7351 23.3972ZM11.792 25.5159C11.7893 26.091 11.891 26.6627 12.0928 27.199L13.9646 26.4943C13.8496 26.1888 13.7904 25.8594 13.792 25.5254L11.792 25.5159ZM12.0928 27.199C12.2947 27.7353 12.5939 28.2282 12.9769 28.6477L14.454 27.2993C14.2471 27.0726 14.0796 26.7997 13.9646 26.4943L12.0928 27.199ZM12.9769 28.6477C13.36 29.0674 13.82 29.4059 14.3329 29.6396L15.1622 27.8197C14.9022 27.7012 14.6607 27.5258 14.454 27.2993L12.9769 28.6477ZM14.3329 29.6396C14.8462 29.8735 15.4002 29.9968 15.9625 29.9999L15.9737 28C15.6975 27.9984 15.422 27.938 15.1622 27.8197L14.3329 29.6396ZM15.9625 29.9999C17.1017 30.0063 18.1788 29.5209 18.962 28.6805L17.4988 27.317C17.0783 27.7682 16.5279 28.0031 15.9737 28L15.9625 29.9999ZM18.962 28.6805C19.7426 27.8429 20.1716 26.7195 20.1771 25.5611L18.1771 25.5516C18.1739 26.2293 17.9218 26.8631 17.4988 27.317L18.962 28.6805ZM20.1771 25.5564V25.5206H18.1771V25.5564H20.1771Z" fill="black" mask="url(#path-1-inside-1_1_418)"/>
</g>
<defs>
<filter id="filter0_d_1_418" x="0" y="0" width="32" height="37" filterUnits="userSpaceOnUse" color-interpolation-filters="sRGB">
<feFlood flood-opacity="0" result="BackgroundImageFix"/>
<feColorMatrix in="SourceAlpha" type="matrix" values="0 0 0 0 0 0 0 0 0 0 0 0 0 0 0 0 0 0 127 0" result="hardAlpha"/>
<feOffset dy="4"/>
<feGaussianBlur stdDeviation="2"/>
<feComposite in2="hardAlpha" operator="out"/>
<feColorMatrix type="matrix" values="0 0 0 0 0 0 0 0 0 0 0 0 0 0 0 0 0 0 0.25 0"/>
<feBlend mode="normal" in2="BackgroundImageFix" result="effect1_dropShadow_1_418"/>
<feBlend mode="normal" in="SourceGraphic" in2="effect1_dropShadow_1_418" result="shape"/>
</filter>
</defs>
</svg>
