<svg width="29" height="37" viewBox="0 0 29 37" fill="none" xmlns="http://www.w3.org/2000/svg">
<g filter="url(#filter0_d_1_376)">
<path d="M9.12504 7.25C8.8985 7.25 8.68124 7.34548 8.52105 7.51543C8.36087 7.68539 8.27087 7.9159 8.27087 8.15625C8.27087 8.3966 8.36087 8.62711 8.52105 8.79707C8.68124 8.96702 8.8985 9.0625 9.12504 9.0625H19.375C19.6016 9.0625 19.8188 8.96702 19.979 8.79707C20.1392 8.62711 20.2292 8.3966 20.2292 8.15625C20.2292 7.9159 20.1392 7.68539 19.979 7.51543C19.8188 7.34548 19.6016 7.25 19.375 7.25H9.12504ZM8.27087 11.7812C8.27087 11.5409 8.36087 11.3104 8.52105 11.1404C8.68124 10.9705 8.8985 10.875 9.12504 10.875H19.375C19.6016 10.875 19.8188 10.9705 19.979 11.1404C20.1392 11.3104 20.2292 11.5409 20.2292 11.7812C20.2292 12.0216 20.1392 12.2521 19.979 12.4221C19.8188 12.592 19.6016 12.6875 19.375 12.6875H9.12504C8.8985 12.6875 8.68124 12.592 8.52105 12.4221C8.36087 12.2521 8.27087 12.0216 8.27087 11.7812ZM9.12504 14.5C8.8985 14.5 8.68124 14.5955 8.52105 14.7654C8.36087 14.9354 8.27087 15.1659 8.27087 15.4062C8.27087 15.6466 8.36087 15.8771 8.52105 16.0471C8.68124 16.217 8.8985 16.3125 9.12504 16.3125H19.375C19.6016 16.3125 19.8188 16.217 19.979 16.0471C20.1392 15.8771 20.2292 15.6466 20.2292 15.4062C20.2292 15.1659 20.1392 14.9354 19.979 14.7654C19.8188 14.5955 19.6016 14.5 19.375 14.5H9.12504ZM9.12504 18.125C8.8985 18.125 8.68124 18.2205 8.52105 18.3904C8.36087 18.5604 8.27087 18.7909 8.27087 19.0312C8.27087 19.2716 8.36087 19.5021 8.52105 19.6721C8.68124 19.842 8.8985 19.9375 9.12504 19.9375H14.25C14.4766 19.9375 14.6938 19.842 14.854 19.6721C15.0142 19.5021 15.1042 19.2716 15.1042 19.0312C15.1042 18.7909 15.0142 18.5604 14.854 18.3904C14.6938 18.2205 14.4766 18.125 14.25 18.125H9.12504Z" fill="white"/>
<path d="M4 3.625C4 2.66359 4.35997 1.74156 5.00072 1.06174C5.64147 0.381919 6.51051 0 7.41667 0L21.0833 0C21.9895 0 22.8585 0.381919 23.4993 1.06174C24.14 1.74156 24.5 2.66359 24.5 3.625V25.375C24.5 26.3364 24.14 27.2584 23.4993 27.9383C22.8585 28.6181 21.9895 29 21.0833 29H7.41667C6.51051 29 5.64147 28.6181 5.00072 27.9383C4.35997 27.2584 4 26.3364 4 25.375V3.625ZM21.0833 1.8125H7.41667C6.96359 1.8125 6.52907 2.00346 6.20869 2.34337C5.88832 2.68328 5.70833 3.14429 5.70833 3.625V25.375C5.70833 25.8557 5.88832 26.3167 6.20869 26.6566C6.52907 26.9965 6.96359 27.1875 7.41667 27.1875H21.0833C21.5364 27.1875 21.9709 26.9965 22.2913 26.6566C22.6117 26.3167 22.7917 25.8557 22.7917 25.375V3.625C22.7917 3.14429 22.6117 2.68328 22.2913 2.34337C21.9709 2.00346 21.5364 1.8125 21.0833 1.8125Z" fill="white"/>
</g>
<defs>
<filter id="filter0_d_1_376" x="0" y="0" width="28.5" height="37" filterUnits="userSpaceOnUse" color-interpolation-filters="sRGB">
<feFlood flood-opacity="0" result="BackgroundImageFix"/>
<feColorMatrix in="SourceAlpha" type="matrix" values="0 0 0 0 0 0 0 0 0 0 0 0 0 0 0 0 0 0 127 0" result="hardAlpha"/>
<feOffset dy="4"/>
<feGaussianBlur stdDeviation="2"/>
<feComposite in2="hardAlpha" operator="out"/>
<feColorMatrix type="matrix" values="0 0 0 0 0 0 0 0 0 0 0 0 0 0 0 0 0 0 0.25 0"/>
<feBlend mode="normal" in2="BackgroundImageFix" result="effect1_dropShadow_1_376"/>
<feBlend mode="normal" in="SourceGraphic" in2="effect1_dropShadow_1_376" result="shape"/>
</filter>
</defs>
</svg>
