<svg width="78" height="78" viewBox="0 0 78 78" fill="none" xmlns="http://www.w3.org/2000/svg">
<path d="M51.1875 58.5H26.8125C25.5196 58.5 24.2796 59.0136 23.3654 59.9278C22.4511 60.8421 21.9375 62.082 21.9375 63.375V68.25C21.9375 69.5429 22.4511 70.7829 23.3654 71.6971C24.2796 72.6113 25.5196 73.125 26.8125 73.125H51.1875C52.4805 73.125 53.7204 72.6113 54.6347 71.6971C55.5489 70.7829 56.0625 69.5429 56.0625 68.25V63.375C56.0625 62.082 55.5489 60.8421 54.6347 59.9278C53.7204 59.0136 52.4805 58.5 51.1875 58.5ZM51.1875 68.25H26.8125V63.375H51.1875V68.25ZM69.9733 34.8392L40.7233 5.58915C40.2662 5.13219 39.6464 4.87549 39 4.87549C38.3537 4.87549 37.7338 5.13219 37.2767 5.58915L8.02672 34.8392C7.68593 35.18 7.45387 35.6143 7.35986 36.0871C7.26585 36.5598 7.31412 37.0499 7.49856 37.4952C7.68301 37.9405 7.99535 38.3212 8.3961 38.589C8.79685 38.8568 9.26801 38.9999 9.75003 39H21.9375V48.75C21.9388 50.0425 22.4529 51.2817 23.3668 52.1957C24.2808 53.1096 25.52 53.6237 26.8125 53.625H51.1875C52.4799 53.623 53.7187 53.1088 54.6325 52.195C55.5464 51.2812 56.0606 50.0423 56.0625 48.75V39H68.25C68.732 38.9999 69.2032 38.8568 69.604 38.589C70.0047 38.3212 70.317 37.9405 70.5015 37.4952C70.6859 37.0499 70.7342 36.5598 70.6402 36.0871C70.5462 35.6143 70.3141 35.18 69.9733 34.8392ZM51.1875 34.125V48.75H26.8125V34.125H15.6342L39 10.7591L62.3659 34.125H51.1875Z" fill="white"/>
</svg>
