<svg width="63" height="88" viewBox="0 0 63 88" fill="none" xmlns="http://www.w3.org/2000/svg">
<g filter="url(#filter0_d_17_5)">
<path d="M15.9081 81.4321C15.7304 82.009 15.7596 82.6304 15.9917 83.1876C16.2234 83.7452 16.6433 84.203 17.1774 84.4816C17.7119 84.7602 18.3265 84.8417 18.915 84.7125C19.503 84.5828 20.027 84.2502 20.3958 83.7727L56.3764 37.3782L15.9081 81.4321ZM15.9081 81.4321L24.8139 52.4059H25.1658V51.2603L24.0738 50.9235L23.9705 51.2603M15.9081 81.4321L23.9705 51.2603ZM23.9705 51.2603H8.08513H23.9705ZM19.5637 4.46221L19.5642 4.46198C19.651 4.1651 19.8315 3.90447 20.0787 3.71912C20.3258 3.53377 20.626 3.4337 20.9349 3.43388H20.9353H41.4952C41.7214 3.43411 41.9439 3.48813 42.1449 3.59151C42.3464 3.69497 42.5201 3.84486 42.6521 4.02883L43.5769 3.36084L42.6521 4.02883C42.7846 4.21285 42.871 4.42569 42.9052 4.6499C42.9395 4.87406 42.9198 5.10317 42.8486 5.3183L33.6992 32.8559L33.198 34.3636H34.783H54.3459H54.3468C54.6141 34.3634 54.8764 34.4385 55.103 34.5803C55.3301 34.7222 55.5124 34.9253 55.6302 35.1659C55.7477 35.4069 55.7956 35.6759 55.7678 35.9426L56.9041 36.0603L55.7678 35.9426C55.7404 36.2093 55.6389 36.4631 55.4744 36.6748L19.4938 83.0693L19.4925 83.0716C19.2878 83.3369 18.9963 83.5216 18.6696 83.5935C18.3429 83.6655 18.0012 83.6201 17.7046 83.4652C17.4077 83.3104 17.1746 83.0561 17.0458 82.7463C16.9169 82.437 16.9005 82.0915 16.9996 81.7712L17.0001 81.7689L26.2573 51.5971L26.7123 50.1148H25.1658H8.08513H8.08468C7.86262 50.1148 7.64331 50.063 7.44502 49.9636C7.24627 49.8641 7.07402 49.7194 6.94061 49.5411C6.80765 49.3629 6.7181 49.1562 6.67835 48.9372L5.55438 49.1402L6.67835 48.9372C6.63905 48.7181 6.65139 48.4927 6.71353 48.2792C6.71353 48.2792 6.71353 48.2792 6.71399 48.2792L19.5637 4.46221Z" fill="white"/>
<path d="M15.9081 81.4321L24.8139 52.4059H25.1658V51.2603L24.0738 50.9235L23.9705 51.2603M15.9081 81.4321L23.9705 51.2603M15.9081 81.4321C15.7304 82.009 15.7596 82.6304 15.9917 83.1876C16.2234 83.7452 16.6433 84.203 17.1774 84.4816C17.7119 84.7602 18.3265 84.8417 18.915 84.7125C19.503 84.5828 20.027 84.2502 20.3958 83.7727L56.3764 37.3782L15.9081 81.4321ZM23.9705 51.2603H8.08513H23.9705ZM19.5637 4.46221L19.5642 4.46198C19.651 4.1651 19.8315 3.90447 20.0787 3.71912C20.3258 3.53377 20.626 3.4337 20.9349 3.43388H20.9353H41.4952C41.7214 3.43411 41.9439 3.48813 42.1449 3.59151C42.3464 3.69497 42.5201 3.84486 42.6521 4.02883L43.5769 3.36084L42.6521 4.02883C42.7846 4.21285 42.871 4.42569 42.9052 4.6499C42.9395 4.87406 42.9198 5.10317 42.8486 5.3183L33.6992 32.8559L33.198 34.3636H34.783H54.3459H54.3468C54.6141 34.3634 54.8764 34.4385 55.103 34.5803C55.3301 34.7222 55.5124 34.9253 55.6302 35.1659C55.7477 35.4069 55.7956 35.6759 55.7678 35.9426L56.9041 36.0603L55.7678 35.9426C55.7404 36.2093 55.6389 36.4631 55.4744 36.6748L19.4938 83.0693L19.4925 83.0716C19.2878 83.3369 18.9963 83.5216 18.6696 83.5935C18.3429 83.6655 18.0012 83.6201 17.7046 83.4652C17.4077 83.3104 17.1746 83.0561 17.0458 82.7463C16.9169 82.437 16.9005 82.0915 16.9996 81.7712L17.0001 81.7689L26.2573 51.5971L26.7123 50.1148H25.1658H8.08513H8.08468C7.86262 50.1148 7.64331 50.063 7.44502 49.9636C7.24627 49.8641 7.07402 49.7194 6.94061 49.5411C6.80765 49.3629 6.7181 49.1562 6.67835 48.9372L5.55438 49.1402L6.67835 48.9372C6.63905 48.7181 6.65139 48.4927 6.71353 48.2792C6.71353 48.2792 6.71353 48.2792 6.71399 48.2792L19.5637 4.46221Z" stroke="#FFC330" stroke-width="5"/>
</g>
<defs>
<filter id="filter0_d_17_5" x="0.155823" y="0.933838" width="62.196" height="94.3385" filterUnits="userSpaceOnUse" color-interpolation-filters="sRGB">
<feFlood flood-opacity="0" result="BackgroundImageFix"/>
<feColorMatrix in="SourceAlpha" type="matrix" values="0 0 0 0 0 0 0 0 0 0 0 0 0 0 0 0 0 0 127 0" result="hardAlpha"/>
<feOffset dy="4"/>
<feGaussianBlur stdDeviation="2"/>
<feComposite in2="hardAlpha" operator="out"/>
<feColorMatrix type="matrix" values="0 0 0 0 0 0 0 0 0 0 0 0 0 0 0 0 0 0 0.25 0"/>
<feBlend mode="normal" in2="BackgroundImageFix" result="effect1_dropShadow_17_5"/>
<feBlend mode="normal" in="SourceGraphic" in2="effect1_dropShadow_17_5" result="shape"/>
</filter>
</defs>
</svg>
